<svg version="1.0" xmlns="http://www.w3.org/2000/svg" width="682.667" height="682.667" viewBox="0 0 512 512"><path d="M0 256v256h512V0H0v256zM159 52.5V71H76v52h76v37H76l-.2 42.2-.3 42.3h-41l-.3-104c-.1-57.2 0-104.6.3-105.3.3-.9 13.8-1.2 62.5-1.2h62v18.5zm109.3 89c12.2 2.2 27.2 7.1 30.5 10 .4.4-11.7 32.8-12.6 33.7-.4.4-2.6-.1-4.7-1.2-6.9-3.3-21.1-6.9-32.6-8.1-22.5-2.5-36.5 2.8-39.9 14.9-1.2 4.6-1.2 5.8.1 10.5 2.3 8.5 11.2 14.9 37.4 26.8 9.8 4.5 21.1 10 24.9 12.3 8.7 5.1 21.1 16.7 25.3 23.8 4.1 6.8 7.3 19.1 7.3 28.2 0 33.7-18.5 56-52.3 63.2-15.5 3.3-42.7 2.8-61.2-1.1-7.4-1.6-25.1-7-27.4-8.4-1.1-.7-.1-4.2 4.9-17.7 3.5-9.3 6.6-17.2 7-17.7.4-.4 3.1.4 6.1 1.7 7.8 3.6 22.8 7.4 34.5 8.8 22.2 2.5 40.2-3.4 45-14.8 1.9-4.5 1.8-13.8-.2-18-3.6-7.6-10.5-12-38.1-24.5s-38.2-19.9-46.6-32.7c-6.5-9.8-7.9-14.7-8.4-29.2-.4-9.6-.1-14.1 1.1-19 5.9-23.5 23.2-38.1 50.6-42.5 10.6-1.8 36.8-1.2 49.3 1zM419.9 269c49.3 10.1 74.1 44.5 74.1 103 0 24.6-3.7 42.7-12 59.5-9.1 18.4-21.2 30.3-40.5 40-16.3 8.2-32.3 11.5-55 11.5-12 0-46.4-1.7-53.2-2.6l-4.3-.5V269.2l6.3-.7c24.9-3 69-2.7 84.6.5z"/><path d="M378.3 303.7l-7.3.4v140.7l10.6.7c19.2 1.3 32.3-1.3 43.3-8.6 15-10 22.7-26.1 25.2-52.6 1.1-12.6 0-29-2.7-39.8-5-19.4-18.9-34.6-35.9-39-6.5-1.7-21.5-2.5-33.2-1.8z"/></svg>