<svg xmlns="http://www.w3.org/2000/svg" width="41" height="56"><path d="M20.5.238c10.893 0 19.723 8.83 19.723 19.724 0 1.303-.126 2.578-.368 3.81.03.315.052.638.07.971 0 0-2.883 17.76-18.778 30.282v.986a45.41 45.41 0 01-.647-.485c-.214.163-.43.325-.647.485v-.986C3.958 42.504 1.076 24.743 1.076 24.743c.017-.333.04-.656.069-.97a19.823 19.823 0 01-.368-3.811C.777 9.068 9.607.238 20.5.238z" fill="#e75735"/><path d="M20.687 12.375a7.938 7.938 0 110 15.875 7.938 7.938 0 010-15.875z" fill="#fff"/></svg>