<?xml version="1.0" standalone="no"?>
<!DOCTYPE svg PUBLIC "-//W3C//DTD SVG 20010904//EN"
 "http://www.w3.org/TR/2001/REC-SVG-20010904/DTD/svg10.dtd">
<svg version="1.0" xmlns="http://www.w3.org/2000/svg"
 width="512.000000pt" height="512.000000pt" viewBox="0 0 512.000000 512.000000"
 preserveAspectRatio="xMidYMid meet">
<metadata>
Created by potrace 1.11, written by Peter Selinger 2001-2013
</metadata>
<g transform="translate(0.000000,512.000000) scale(0.100000,-0.100000)"
fill="#000000" stroke="none">
<path d="M0 2560 l0 -2560 2560 0 2560 0 0 2560 0 2560 -2560 0 -2560 0 0
-2560z m1590 2035 l0 -185 -415 0 -415 0 0 -260 0 -260 380 0 380 0 0 -185 0
-185 -380 0 -380 0 -2 -422 -3 -423 -205 0 -205 0 -3 1040 c-1 572 0 1046 3
1053 3 9 138 12 625 12 l620 0 0 -185z m1093 -890 c122 -22 272 -71 305 -100
4 -4 -117 -328 -126 -337 -4 -4 -26 1 -47 12 -69 33 -211 69 -326 81 -225 25
-365 -28 -399 -149 -12 -46 -12 -58 1 -105 23 -85 112 -149 374 -268 98 -45
211 -100 249 -123 87 -51 211 -167 253 -238 41 -68 73 -191 73 -282 0 -337
-185 -560 -523 -632 -155 -33 -427 -28 -612 11 -74 16 -251 70 -274 84 -11 7
-1 42 49 177 35 93 66 172 70 177 4 4 31 -4 61 -17 78 -36 228 -74 345 -88
222 -25 402 34 450 148 19 45 18 138 -2 180 -36 76 -105 120 -381 245 -276
125 -382 199 -466 327 -65 98 -79 147 -84 292 -4 96 -1 141 11 190 59 235 232
381 506 425 106 18 368 12 493 -10z m1516 -1275 c493 -101 741 -445 741 -1030
0 -246 -37 -427 -120 -595 -91 -184 -212 -303 -405 -400 -163 -82 -323 -115
-550 -115 -120 0 -464 17 -532 26 l-43 5 0 1054 0 1053 63 7 c249 30 690 27
846 -5z"/>
<path d="M3783 2083 l-73 -4 0 -703 0 -704 106 -7 c192 -13 323 13 433 86 150
100 227 261 252 526 11 126 0 290 -27 398 -50 194 -189 346 -359 390 -65 17
-215 25 -332 18z"/>
</g>
</svg>
